# xmcd
#
# Track frame offsets:
#	150
#	21447
#	50535
#	72537
#	75805
#	107849
#	138869
#	173864
#	212870
#	237674
#
# Disc length: 3562 seconds
#
# Revision: 0
# Processed by: cddbd v1.5.2PL0 Copyright (c) Steve Scherf et al.
# Submitted via: EasyCDDAExtractor 2010.6.0.0
#
DISCID=8c0de80a
DTITLE=Eric Clapton - 461 Ocean Bourlevard (Deluxe Edition)
DYEAR=2010
DGENRE=Blues
TTITLE0=Smile
TTITLE1=Let It Grow
TTITLE2=Can't Find My Way Home
TTITLE3=I Shot the Sheriff
TTITLE4=Tell the Truth
TTITLE5=Little Wing
TTITLE6=Singin' the Blues
TTITLE7=Badge
TTITLE8=Layla
TTITLE9=Let it Rain
EXTD=
EXTT0=
EXTT1=
EXTT2=
EXTT3=
EXTT4=
EXTT5=
EXTT6=
EXTT7=
EXTT8=
EXTT9=
PLAYORDER=
